{
  "accessors": [
    {
      "bufferView": 2,
      "componentType": 5126,
      "count": 21485,
      "max": [
        0.13729900121688843,
        -0.38531801104545593,
        0.22820299863815308
      ],
      "min": [
        -0.18379400670528412,
        -0.5867050290107727,
        -0.1747010052204132
      ],
      "type": "VEC3"
    },
    {
      "bufferView": 2,
      "byteOffset": 257820,
      "componentType": 5126,
      "count": 21485,
      "max": [
        0.9970192313194275,
        0.9999868869781494,
        0.9973074793815613
      ],
      "min": [
        -0.9985921382904053,
        -0.9999678730964661,
        -0.9999158978462219
      ],
      "type": "VEC3"
    },
    {
      "bufferView": 3,
      "componentType": 5126,
      "count": 21485,
      "max": [
        0.9985439777374268,
        0.9985650181770325,
        0.9973580241203308,
        1.0
      ],
      "min": [
        -0.9994379878044128,
        -0.9987109899520874,
        -0.9997119903564453,
        -1.0
      ],
      "type": "VEC4"
    },
    {
      "bufferView": 1,
      "componentType": 5126,
      "count": 21485,
      "max": [
        0.937794029712677,
        0.9546040296554565
      ],
      "min": [
        0.03680109977722168,
        0.028206299990415573
      ],
      "type": "VEC2"
    },
    {
      "bufferView": 0,
      "componentType": 5125,
      "count": 22572,
      "type": "SCALAR"
    },
    {
      "bufferView": 2,
      "byteOffset": 515640,
      "componentType": 5126,
      "count": 1581,
      "max": [
        0.3234420120716095,
        -0.37630099058151245,
        0.3192349970340729
      ],
      "min": [
        -0.32433998584747314,
        -0.5666850209236145,
        -0.28761500120162964
      ],
      "type": "VEC3"
    },
    {
      "bufferView": 2,
      "byteOffset": 534612,
      "componentType": 5126,
      "count": 1581,
      "max": [
        0.9995716214179993,
        0.9992396235466003,
        0.9995756149291992
      ],
      "min": [
        -0.9999182224273682,
        -0.9973316192626953,
        -0.9976730942726135
      ],
      "type": "VEC3"
    },
    {
      "bufferView": 3,
      "byteOffset": 343760,
      "componentType": 5126,
      "count": 1581,
      "max": [
        0.9994670152664185,
        0.9923689961433411,
        0.9977790117263794,
        1.0
      ],
      "min": [
        -0.9958149790763855,
        -0.9989830255508423,
        -0.9991179704666138,
        1.0
      ],
      "type": "VEC4"
    },
    {
      "bufferView": 1,
      "byteOffset": 171880,
      "componentType": 5126,
      "count": 1581,
      "max": [
        0.9017950296401978,
        0.960910975933075
      ],
      "min": [
        0.03297780081629753,
        0.04017519950866699
      ],
      "type": "VEC2"
    },
    {
      "bufferView": 0,
      "byteOffset": 90288,
      "componentType": 5125,
      "count": 7416,
      "type": "SCALAR"
    },
    {
      "bufferView": 2,
      "byteOffset": 553584,
      "componentType": 5126,
      "count": 1175,
      "max": [
        -0.013102400116622448,
        0.654865026473999,
        0.08020979911088943
      ],
      "min": [
        -0.1944900006055832,
        0.2287140041589737,
        -0.08020979911088943
      ],
      "type": "VEC3"
    },
    {
      "bufferView": 2,
      "byteOffset": 567684,
      "componentType": 5126,
      "count": 1175,
      "max": [
        0.9989256262779236,
        0.9998761415481567,
        0.9999989867210388
      ],
      "min": [
        -0.9991720914840698,
        -0.9992457628250122,
        -0.9999989867210388
      ],
      "type": "VEC3"
    },
    {
      "bufferView": 3,
      "byteOffset": 369056,
      "componentType": 5126,
      "count": 1175,
      "max": [
        0.999692976474762,
        0.9967790246009827,
        0.9998409748077393,
        1.0
      ],
      "min": [
        -0.9985910058021545,
        -0.9997749924659729,
        -0.9999729990959167,
        1.0
      ],
      "type": "VEC4"
    },
    {
      "bufferView": 1,
      "byteOffset": 184528,
      "componentType": 5126,
      "count": 1175,
      "max": [
        0.9477930068969727,
        0.9654390215873718
      ],
      "min": [
        0.026629799976944923,
        0.020117999985814095
      ],
      "type": "VEC2"
    },
    {
      "bufferView": 0,
      "byteOffset": 119952,
      "componentType": 5125,
      "count": 5370,
      "type": "SCALAR"
    },
    {
      "bufferView": 2,
      "byteOffset": 581784,
      "componentType": 5126,
      "count": 11040,
      "max": [
        0.48881399631500244,
        -0.4448910057544708,
        0.4853839874267578
      ],
      "min": [
        -0.5044050216674805,
        -0.6530320048332214,
        -0.4931179881095886
      ],
      "type": "VEC3"
    },
    {
      "bufferView": 2,
      "byteOffset": 714264,
      "componentType": 5126,
      "count": 11040,
      "max": [
        0.9993794560432434,
        0.999535858631134,
        0.9997051358222961
      ],
      "min": [
        -0.999793529510498,
        -0.9999334812164307,
        -0.9997432231903076
      ],
      "type": "VEC3"
    },
    {
      "bufferView": 3,
      "byteOffset": 387856,
      "componentType": 5126,
      "count": 11040,
      "max": [
        0.9999979734420776,
        0.9999979734420776,
        0.9999949932098389,
        1.0
      ],
      "min": [
        -0.9996230006217957,
        -0.9999780058860779,
        -0.9999930262565613,
        -1.0
      ],
      "type": "VEC4"
    },
    {
      "bufferView": 1,
      "byteOffset": 193928,
      "componentType": 5126,
      "count": 11040,
      "max": [
        0.9791560173034668,
        0.9641039967536926
      ],
      "min": [
        0.020844100043177605,
        0.02052360028028488
      ],
      "type": "VEC2"
    },
    {
      "bufferView": 0,
      "byteOffset": 141432,
      "componentType": 5125,
      "count": 47544,
      "type": "SCALAR"
    },
    {
      "bufferView": 2,
      "byteOffset": 846744,
      "componentType": 5126,
      "count": 61,
      "max": [
        1.0,
        -0.553363025188446,
        1.0
      ],
      "min": [
        -1.0,
        -0.553363025188446,
        -1.0
      ],
      "type": "VEC3"
    },
    {
      "bufferView": 2,
      "byteOffset": 847476,
      "componentType": 5126,
      "count": 61,
      "max": [
        0.0,
        1.0,
        0.0
      ],
      "min": [
        0.0,
        1.0,
        0.0
      ],
      "type": "VEC3"
    },
    {
      "bufferView": 3,
      "byteOffset": 564496,
      "componentType": 5126,
      "count": 61,
      "max": [
        1.0,
        0.0,
        1.976080056920182e-06,
        1.0
      ],
      "min": [
        1.0,
        0.0,
        -2.242639993710327e-06,
        1.0
      ],
      "type": "VEC4"
    },
    {
      "bufferView": 1,
      "byteOffset": 282248,
      "componentType": 5126,
      "count": 61,
      "max": [
        0.970982015132904,
        0.970982015132904
      ],
      "min": [
        0.0290181003510952,
        0.0290181003510952
      ],
      "type": "VEC2"
    },
    {
      "bufferView": 0,
      "byteOffset": 331608,
      "componentType": 5125,
      "count": 288,
      "type": "SCALAR"
    },
    {
      "bufferView": 2,
      "byteOffset": 848208,
      "componentType": 5126,
      "count": 410,
      "max": [
        0.039806000888347626,
        0.23760999739170074,
        0.02542860060930252
      ],
      "min": [
        -0.11164099723100662,
        -0.654865026473999,
        -0.02542860060930252
      ],
      "type": "VEC3"
    },
    {
      "bufferView": 2,
      "byteOffset": 853128,
      "componentType": 5126,
      "count": 410,
      "max": [
        0.9990864992141724,
        0.13640597462654114,
        0.9998581409454346
      ],
      "min": [
        -0.9878326654434204,
        -0.9893611073493958,
        -0.9998581409454346
      ],
      "type": "VEC3"
    },
    {
      "bufferView": 3,
      "byteOffset": 565472,
      "componentType": 5126,
      "count": 410,
      "max": [
        0.7112380266189575,
        -0.011616099625825882,
        0.8872140049934387,
        1.0
      ],
      "min": [
        -0.36342400312423706,
        -0.9992390275001526,
        -0.9967740178108215,
        -1.0
      ],
      "type": "VEC4"
    },
    {
      "bufferView": 1,
      "byteOffset": 282736,
      "componentType": 5126,
      "count": 410,
      "max": [
        0.9660149812698364,
        0.9799150228500366
      ],
      "min": [
        0.02636820077896118,
        0.03459379822015762
      ],
      "type": "VEC2"
    },
    {
      "bufferView": 0,
      "byteOffset": 332760,
      "componentType": 5125,
      "count": 1176,
      "type": "SCALAR"
    },
    {
      "bufferView": 2,
      "byteOffset": 858048,
      "componentType": 5126,
      "count": 141,
      "max": [
        0.45594701170921326,
        -0.38392001390457153,
        0.47748398780822754
      ],
      "min": [
        -0.5320979952812195,
        -0.553363025188446,
        -0.4719730019569397
      ],
      "type": "VEC3"
    },
    {
      "bufferView": 2,
      "byteOffset": 859740,
      "componentType": 5126,
      "count": 141,
      "max": [
        0.5938970446586609,
        1.0,
        0.600949227809906
      ],
      "min": [
        -0.6035763025283813,
        0.7910627126693726,
        -0.600949227809906
      ],
      "type": "VEC3"
    },
    {
      "bufferView": 3,
      "byteOffset": 572032,
      "componentType": 5126,
      "count": 141,
      "max": [
        0.20816899836063385,
        0.6009730100631714,
        -0.798803985118866,
        1.0
      ],
      "min": [
        -0.1757349967956543,
        -0.6003320217132568,
        -0.9997730255126953,
        1.0
      ],
      "type": "VEC4"
    },
    {
      "bufferView": 1,
      "byteOffset": 286016,
      "componentType": 5126,
      "count": 141,
      "max": [
        0.9589899778366089,
        0.9703019857406616
      ],
      "min": [
        0.0507022999227047,
        0.022289199754595757
      ],
      "type": "VEC2"
    },
    {
      "bufferView": 0,
      "byteOffset": 337464,
      "componentType": 5125,
      "count": 780,
      "type": "SCALAR"
    }
  ],
  "asset": {
    "extras": {
      "author": "UselessViking (https://sketchfab.com/UselessViking)",
      "license": "CC-BY-4.0 (http://creativecommons.org/licenses/by/4.0/)",
      "source": "https://sketchfab.com/3d-models/dark-souls-bonfire-b0d68c8f4cd0487da3d1fb8327ab1044",
      "title": "Dark Souls - Bonfire"
    },
    "generator": "Sketchfab-12.66.0",
    "version": "2.0"
  },
  "bufferViews": [
    {
      "buffer": 0,
      "byteLength": 340584,
      "name": "floatBufferViews",
      "target": 34963
    },
    {
      "buffer": 0,
      "byteLength": 287144,
      "byteOffset": 340584,
      "byteStride": 8,
      "name": "floatBufferViews",
      "target": 34962
    },
    {
      "buffer": 0,
      "byteLength": 861432,
      "byteOffset": 627728,
      "byteStride": 12,
      "name": "floatBufferViews",
      "target": 34962
    },
    {
      "buffer": 0,
      "byteLength": 574288,
      "byteOffset": 1489160,
      "byteStride": 16,
      "name": "floatBufferViews",
      "target": 34962
    }
  ],
  "buffers": [
    {
      "byteLength": 2063448,
      "uri": "scene.bin"
    }
  ],
  "extensionsRequired": [
    "KHR_materials_pbrSpecularGlossiness"
  ],
  "extensionsUsed": [
    "KHR_materials_pbrSpecularGlossiness"
  ],
  "images": [
    {
      "uri": "textures/asche_diffuse.jpeg"
    },
    {
      "uri": "textures/asche_specularGlossiness.png"
    },
    {
      "uri": "textures/asche_emissive.jpeg"
    },
    {
      "uri": "textures/asche_normal.jpeg"
    },
    {
      "uri": "textures/asche_occlusion.png"
    },
    {
      "uri": "textures/klinge_diffuse.jpeg"
    },
    {
      "uri": "textures/klinge_specularGlossiness.png"
    },
    {
      "uri": "textures/klinge_emissive.jpeg"
    },
    {
      "uri": "textures/klinge_normal.jpeg"
    },
    {
      "uri": "textures/klinge_occlusion.png"
    },
    {
      "uri": "textures/boden_diffuse.jpeg"
    },
    {
      "uri": "textures/boden_specularGlossiness.png"
    },
    {
      "uri": "textures/boden_normal.jpeg"
    },
    {
      "uri": "textures/boden_occlusion.png"
    },
    {
      "uri": "textures/steine_diffuse.jpeg"
    },
    {
      "uri": "textures/steine_specularGlossiness.png"
    },
    {
      "uri": "textures/steine_normal.jpeg"
    },
    {
      "uri": "textures/steine_occlusion.png"
    },
    {
      "uri": "textures/griff_diffuse.jpeg"
    },
    {
      "uri": "textures/griff_specularGlossiness.png"
    },
    {
      "uri": "textures/griff_emissive.jpeg"
    },
    {
      "uri": "textures/griff_normal.jpeg"
    },
    {
      "uri": "textures/griff_occlusion.png"
    },
    {
      "uri": "textures/knochen_diffuse.jpeg"
    },
    {
      "uri": "textures/knochen_specularGlossiness.png"
    },
    {
      "uri": "textures/knochen_normal.jpeg"
    },
    {
      "uri": "textures/knochen_occlusion.png"
    },
    {
      "uri": "textures/schaedel_diffuse.jpeg"
    },
    {
      "uri": "textures/schaedel_specularGlossiness.png"
    },
    {
      "uri": "textures/schaedel_normal.jpeg"
    },
    {
      "uri": "textures/schaedel_occlusion.png"
    }
  ],
  "materials": [
    {
      "doubleSided": true,
      "emissiveFactor": [
        1.0,
        1.0,
        1.0
      ],
      "emissiveTexture": {
        "index": 2
      },
      "extensions": {
        "KHR_materials_pbrSpecularGlossiness": {
          "diffuseFactor": [
            1.0,
            1.0,
            1.0,
            1.0
          ],
          "diffuseTexture": {
            "index": 0
          },
          "glossinessFactor": 1.0,
          "specularFactor": [
            1.0,
            1.0,
            1.0
          ],
          "specularGlossinessTexture": {
            "index": 1
          }
        }
      },
      "name": "asche",
      "normalTexture": {
        "index": 3
      },
      "occlusionTexture": {
        "index": 4
      }
    },
    {
      "doubleSided": true,
      "emissiveFactor": [
        1.0,
        1.0,
        1.0
      ],
      "emissiveTexture": {
        "index": 7
      },
      "extensions": {
        "KHR_materials_pbrSpecularGlossiness": {
          "diffuseFactor": [
            1.0,
            1.0,
            1.0,
            1.0
          ],
          "diffuseTexture": {
            "index": 5
          },
          "glossinessFactor": 1.0,
          "specularFactor": [
            1.0,
            1.0,
            1.0
          ],
          "specularGlossinessTexture": {
            "index": 6
          }
        }
      },
      "name": "klinge",
      "normalTexture": {
        "index": 8
      },
      "occlusionTexture": {
        "index": 9
      }
    },
    {
      "doubleSided": true,
      "extensions": {
        "KHR_materials_pbrSpecularGlossiness": {
          "diffuseFactor": [
            1.0,
            1.0,
            1.0,
            1.0
          ],
          "diffuseTexture": {
            "index": 10
          },
          "glossinessFactor": 1.0,
          "specularFactor": [
            1.0,
            1.0,
            1.0
          ],
          "specularGlossinessTexture": {
            "index": 11
          }
        }
      },
      "name": "boden",
      "normalTexture": {
        "index": 12
      },
      "occlusionTexture": {
        "index": 13
      }
    },
    {
      "doubleSided": true,
      "extensions": {
        "KHR_materials_pbrSpecularGlossiness": {
          "diffuseFactor": [
            1.0,
            1.0,
            1.0,
            1.0
          ],
          "diffuseTexture": {
            "index": 14
          },
          "glossinessFactor": 1.0,
          "specularFactor": [
            1.0,
            1.0,
            1.0
          ],
          "specularGlossinessTexture": {
            "index": 15
          }
        }
      },
      "name": "steine",
      "normalTexture": {
        "index": 16
      },
      "occlusionTexture": {
        "index": 17
      }
    },
    {
      "doubleSided": true,
      "emissiveFactor": [
        1.0,
        1.0,
        1.0
      ],
      "emissiveTexture": {
        "index": 20
      },
      "extensions": {
        "KHR_materials_pbrSpecularGlossiness": {
          "diffuseFactor": [
            1.0,
            1.0,
            1.0,
            1.0
          ],
          "diffuseTexture": {
            "index": 18
          },
          "glossinessFactor": 1.0,
          "specularFactor": [
            1.0,
            1.0,
            1.0
          ],
          "specularGlossinessTexture": {
            "index": 19
          }
        }
      },
      "name": "griff",
      "normalTexture": {
        "index": 21
      },
      "occlusionTexture": {
        "index": 22
      }
    },
    {
      "doubleSided": true,
      "extensions": {
        "KHR_materials_pbrSpecularGlossiness": {
          "diffuseFactor": [
            1.0,
            1.0,
            1.0,
            1.0
          ],
          "diffuseTexture": {
            "index": 23
          },
          "glossinessFactor": 1.0,
          "specularFactor": [
            1.0,
            1.0,
            1.0
          ],
          "specularGlossinessTexture": {
            "index": 24
          }
        }
      },
      "name": "knochen",
      "normalTexture": {
        "index": 25
      },
      "occlusionTexture": {
        "index": 26
      }
    },
    {
      "doubleSided": true,
      "extensions": {
        "KHR_materials_pbrSpecularGlossiness": {
          "diffuseFactor": [
            1.0,
            1.0,
            1.0,
            1.0
          ],
          "diffuseTexture": {
            "index": 27
          },
          "glossinessFactor": 1.0,
          "specularFactor": [
            1.0,
            1.0,
            1.0
          ],
          "specularGlossinessTexture": {
            "index": 28
          }
        }
      },
      "name": "schaedel",
      "normalTexture": {
        "index": 29
      },
      "occlusionTexture": {
        "index": 30
      }
    }
  ],
  "meshes": [
    {
      "name": "defaultMaterial",
      "primitives": [
        {
          "attributes": {
            "NORMAL": 1,
            "POSITION": 0,
            "TANGENT": 2,
            "TEXCOORD_0": 3
          },
          "indices": 4,
          "material": 6,
          "mode": 4
        }
      ]
    },
    {
      "name": "defaultMaterial",
      "primitives": [
        {
          "attributes": {
            "NORMAL": 6,
            "POSITION": 5,
            "TANGENT": 7,
            "TEXCOORD_0": 8
          },
          "indices": 9,
          "material": 5,
          "mode": 4
        }
      ]
    },
    {
      "name": "defaultMaterial",
      "primitives": [
        {
          "attributes": {
            "NORMAL": 11,
            "POSITION": 10,
            "TANGENT": 12,
            "TEXCOORD_0": 13
          },
          "indices": 14,
          "material": 4,
          "mode": 4
        }
      ]
    },
    {
      "name": "defaultMaterial",
      "primitives": [
        {
          "attributes": {
            "NORMAL": 16,
            "POSITION": 15,
            "TANGENT": 17,
            "TEXCOORD_0": 18
          },
          "indices": 19,
          "material": 3,
          "mode": 4
        }
      ]
    },
    {
      "name": "defaultMaterial",
      "primitives": [
        {
          "attributes": {
            "NORMAL": 21,
            "POSITION": 20,
            "TANGENT": 22,
            "TEXCOORD_0": 23
          },
          "indices": 24,
          "material": 2,
          "mode": 4
        }
      ]
    },
    {
      "name": "defaultMaterial",
      "primitives": [
        {
          "attributes": {
            "NORMAL": 26,
            "POSITION": 25,
            "TANGENT": 27,
            "TEXCOORD_0": 28
          },
          "indices": 29,
          "material": 1,
          "mode": 4
        }
      ]
    },
    {
      "name": "defaultMaterial",
      "primitives": [
        {
          "attributes": {
            "NORMAL": 31,
            "POSITION": 30,
            "TANGENT": 32,
            "TEXCOORD_0": 33
          },
          "indices": 34,
          "material": 0,
          "mode": 4
        }
      ]
    }
  ],
  "nodes": [
    {
      "children": [
        1
      ],
      "matrix": [
        1.0,
        0.0,
        0.0,
        0.0,
        0.0,
        2.220446049250313e-16,
        -1.0,
        0.0,
        0.0,
        1.0,
        2.220446049250313e-16,
        0.0,
        0.0,
        0.0,
        0.0,
        1.0
      ],
      "name": "Sketchfab_model"
    },
    {
      "children": [
        2,
        4,
        6,
        8,
        10,
        12,
        14
      ],
      "matrix": [
        1.0,
        0.0,
        0.0,
        0.0,
        0.0,
        -4.371139006309477e-08,
        0.999999999999999,
        0.0,
        0.0,
        -0.999999999999999,
        -4.371139006309477e-08,
        0.0,
        0.0,
        0.0,
        0.0,
        1.0
      ],
      "name": "Collada visual scene group"
    },
    {
      "children": [
        3
      ],
      "name": "schaedel3"
    },
    {
      "mesh": 0,
      "name": "defaultMaterial"
    },
    {
      "children": [
        5
      ],
      "name": "pCube38"
    },
    {
      "mesh": 1,
      "name": "defaultMaterial"
    },
    {
      "children": [
        7
      ],
      "name": "polySurface1"
    },
    {
      "mesh": 2,
      "name": "defaultMaterial"
    },
    {
      "children": [
        9
      ],
      "name": "pCube30"
    },
    {
      "mesh": 3,
      "name": "defaultMaterial"
    },
    {
      "children": [
        11
      ],
      "name": "pDisc1"
    },
    {
      "mesh": 4,
      "name": "defaultMaterial"
    },
    {
      "children": [
        13
      ],
      "name": "pCube1"
    },
    {
      "mesh": 5,
      "name": "defaultMaterial"
    },
    {
      "children": [
        15
      ],
      "name": "pSphere1"
    },
    {
      "mesh": 6,
      "name": "defaultMaterial"
    }
  ],
  "samplers": [
    {
      "magFilter": 9729,
      "minFilter": 9987,
      "wrapS": 10497,
      "wrapT": 10497
    }
  ],
  "scene": 0,
  "scenes": [
    {
      "name": "Sketchfab_Scene",
      "nodes": [
        0
      ]
    }
  ],
  "textures": [
    {
      "sampler": 0,
      "source": 0
    },
    {
      "sampler": 0,
      "source": 1
    },
    {
      "sampler": 0,
      "source": 2
    },
    {
      "sampler": 0,
      "source": 3
    },
    {
      "sampler": 0,
      "source": 4
    },
    {
      "sampler": 0,
      "source": 5
    },
    {
      "sampler": 0,
      "source": 6
    },
    {
      "sampler": 0,
      "source": 7
    },
    {
      "sampler": 0,
      "source": 8
    },
    {
      "sampler": 0,
      "source": 9
    },
    {
      "sampler": 0,
      "source": 10
    },
    {
      "sampler": 0,
      "source": 11
    },
    {
      "sampler": 0,
      "source": 12
    },
    {
      "sampler": 0,
      "source": 13
    },
    {
      "sampler": 0,
      "source": 14
    },
    {
      "sampler": 0,
      "source": 15
    },
    {
      "sampler": 0,
      "source": 16
    },
    {
      "sampler": 0,
      "source": 17
    },
    {
      "sampler": 0,
      "source": 18
    },
    {
      "sampler": 0,
      "source": 19
    },
    {
      "sampler": 0,
      "source": 20
    },
    {
      "sampler": 0,
      "source": 21
    },
    {
      "sampler": 0,
      "source": 22
    },
    {
      "sampler": 0,
      "source": 23
    },
    {
      "sampler": 0,
      "source": 24
    },
    {
      "sampler": 0,
      "source": 25
    },
    {
      "sampler": 0,
      "source": 26
    },
    {
      "sampler": 0,
      "source": 27
    },
    {
      "sampler": 0,
      "source": 28
    },
    {
      "sampler": 0,
      "source": 29
    },
    {
      "sampler": 0,
      "source": 30
    }
  ]
}
